# xmcd CD database file
#
# Track frame offsets:
#	150
#	21179
#	34816
#	52702
#	65943
#	81143
#	96374
#	111921
#	124580
#	140979
#	153432
#	171345
#	187360
#
# Disc length: 2756 seconds
#
# Revision: 0
# Processed by: cddbd v1.5.2PL0 Copyright (c) Steve Scherf et al.
# Submitted via: CDex 1.70beta2
#
DISCID=bf0ac20d
DTITLE=Norah Jones - Not Too Late
DYEAR=2007
DGENRE=Jazz
TTITLE0=Wish I Could
TTITLE1=Sinkin Soon
TTITLE2=The Sun Doesn't Like You
TTITLE3=Until The End
TTITLE4=Not My Friend
TTITLE5=Thinking About You
TTITLE6=Broken
TTITLE7=My Dear Country
TTITLE8=Wake Me Up
TTITLE9=Be My Somebody
TTITLE10=Little Room
TTITLE11=Rosie's Lullaby
TTITLE12=Not Too Late
EXTD=YEAR: 2007
EXTT0=
EXTT1=
EXTT2=
EXTT3=
EXTT4=
EXTT5=
EXTT6=
EXTT7=
EXTT8=
EXTT9=
EXTT10=
EXTT11=
EXTT12=
PLAYORDER=
